<svg xmlns="http://www.w3.org/2000/svg" height="24" viewBox="0 -960 960 960" width="24"><path d="m 300,-853.98438 c -62.66667,0 -115.03125,20.96876 -157.03125,62.96876 -42,42 -62.96875,94.36458 -62.96875,157.03124 0,30.66667 5.135417,60.66667 15.46875,90 C 105.80208,-514.65104 124,-482.5 150,-447.5 c 26,35 61,74.51562 105,118.51562 44,44 99.69792,96.28646 167.03125,156.95313 L 480,-120 537.96875,-172.03125 C 605.30208,-232.69792 661,-284.98438 705,-328.98438 c 44,-44 79,-83.51562 105,-118.51562 26,-35 44.19792,-67.15104 54.53125,-96.48438 10.33333,-29.33333 15.46875,-59.33333 15.46875,-90 0,-62.66666 -20.96875,-115.03124 -62.96875,-157.03124 -42,-42 -94.36458,-62.96876 -157.03125,-62.96876 -34.66667,0 -67.65104,7.28646 -98.98438,21.95313 C 529.68229,-817.36458 502.66667,-796.66667 480,-770 457.33333,-796.66667 430.31771,-817.36458 398.98438,-832.03125 367.65104,-846.69792 334.66667,-853.98438 300,-853.98438 Z m 364.0625,450.07813 c -9.76486,10.14756 -15.10342,17.5358 -26.09375,28.4375 -11.21626,11.1258 -30.00527,27.67146 -42.89063,40 24.80536,-24.09547 49.65939,-48.065 68.98438,-68.4375 z"/></svg>
